<?xml version="1.0" encoding="utf-8"?>
<!DOCTYPE svg PUBLIC "-//W3C//DTD SVG 1.1//EN" "http://www.w3.org/Graphics/SVG/1.1/DTD/svg11.dtd">
<svg version="1.1" id="Layer_1" xmlns="http://www.w3.org/2000/svg" xmlns:xlink="http://www.w3.org/1999/xlink" x="0px" y="0px"
	 width="240px" height="240px" viewBox="0 0 240 240" enable-background="new 0 0 240 240" xml:space="preserve">

<path d="M231.3867188,42.6191406c2.34375,0,4.375,0.8496094,6.0742188,2.5488281S240,48.8984375,240,51.2421875
	s-0.8789063,4.3359375-2.6757813,5.9467773L99.8466797,194.9208984c-0.15625,0.1660156-0.3320313,0.2832031-0.4882813,0.3710938
	c-0.15625,0.078125-0.3320313,0.1953125-0.4882813,0.3613281c-1.7773438,1.2988281-3.7304688,1.8652344-5.8203125,1.6992188
	c-2.109375-0.15625-3.8867188-0.9667969-5.3515625-2.4316406L2.9150391,110.1474609
	c-3.8867188-4.0429688-3.8867188-8.0175781,0-11.9042969c1.1523438-1.1328125,2.4414063-1.9042969,3.8867188-2.3046875
	c1.4648438-0.4003906,2.96875-0.4003906,4.5117188,0c1.5234375,0.4003906,2.7929688,1.171875,3.75,2.3046875l78.7089844,78.4648438
	L225.4296875,45.0507813C227.0507813,43.4296875,229.0234375,42.6191406,231.3867188,42.6191406z"/>
</svg>
