<?xml version="1.0" encoding="utf-8"?>
<!DOCTYPE svg PUBLIC "-//W3C//DTD SVG 1.1//EN" "http://www.w3.org/Graphics/SVG/1.1/DTD/svg11.dtd">
<svg version="1.1" id="Layer_1" xmlns="http://www.w3.org/2000/svg" xmlns:xlink="http://www.w3.org/1999/xlink" x="0px" y="0px"
	 width="240px" height="240px" viewBox="0 0 240 240" enable-background="new 0 0 240 240" xml:space="preserve">

<path d="M237.2172852,226.9140625c3.7109375,3.3398438,3.7109375,6.8652344,0,10.5761719
	c-1.484375,1.484375-3.2519531,2.2363281-5.2929688,2.2363281s-3.7988281-0.7519531-5.2832031-2.2363281l-106.328125-106.8847656
	L13.4277344,237.4902344c-1.484375,1.484375-3.3398438,2.2363281-5.5664063,2.2363281
	c-1.484375-0.3710938-3.1542969-1.1230469-5.0097656-2.2363281c-3.7109375-3.7109375-3.7109375-7.2363281,0-10.5761719
	l106.8852539-106.875L2.8515625,13.7109375C-0.859375,10-0.9472656,6.3769531,2.578125,2.8515625
	S9.7167969-0.5859375,13.4277344,3.125l106.8852539,106.328125L226.6411133,3.125
	c1.1132813-1.1132813,2.3144531-1.8554688,3.6132813-2.2265625s2.5976563-0.3710938,3.8964844,0
	s2.3242188,1.1132813,3.0664063,2.2265625c1.484375,1.484375,2.2265625,3.2519531,2.2265625,5.2929688
	s-0.7421875,3.8085938-2.2265625,5.2929688l-106.328125,106.328125L237.2172852,226.9140625z"/>
</svg>
