<?xml version="1.0" encoding="utf-8"?>
<!DOCTYPE svg PUBLIC "-//W3C//DTD SVG 1.1//EN" "http://www.w3.org/Graphics/SVG/1.1/DTD/svg11.dtd">
<svg version="1.1" id="Layer_1" xmlns="http://www.w3.org/2000/svg" xmlns:xlink="http://www.w3.org/1999/xlink" x="0px" y="0px"
	 width="240px" height="240px" viewBox="0 0 240 240" enable-background="new 0 0 240 240" xml:space="preserve">
	<path fill="#fff" d="M192,215.9960938c0,2.1679688-0.7900391,4.0410156-2.3720703,5.6230469
		C188.0361328,223.2011719,186.1621094,224,184.0039063,224h-160c-2.1679688,0-4.0410156-0.7988281-5.6230469-2.3808594
		C16.7890625,220.0371094,16,218.1640625,16,215.9960938v-160c0-2.3242188,0.7890625-4.2470703,2.3808594-5.7412109
		C19.9628906,48.7509766,21.8359375,48,24.0039063,48H144V32H15.9960938c-4.4921875,0-8.2910156,1.5341797-11.3671875,4.6201172
		C1.5429688,39.7060547,0,43.4960938,0,47.9980469v176.0058594c0,2.8320313,0.703125,5.4980469,2.1289063,7.9980469
		c1.4160156,2.5,3.3691406,4.4628906,5.8691406,5.8691406C10.4980469,239.296875,13.1640625,240,15.9960938,240h176.0058594
		c2.1679688,0,4.2480469-0.4101563,6.25-1.25s3.7011719-1.953125,5.1269531-3.3789063
		c1.4160156-1.40625,2.5400391-3.125,3.3701172-5.1171875c0.8300781-2.0019531,1.2509766-4.0820313,1.2509766-6.25V96h-16
		V215.9960938z"/>
	<polygon fill="#fff" points="224,0 170,0 170,16 212.4970703,16 104.0039063,124.5019531 115.4980469,135.7519531 224,27.25 224,70 240,70 
		240,16 240,0 	"/>
</svg>
