<?xml version="1.0" encoding="utf-8"?>
<!DOCTYPE svg PUBLIC "-//W3C//DTD SVG 1.1//EN" "http://www.w3.org/Graphics/SVG/1.1/DTD/svg11.dtd">
<svg version="1.1" id="Layer_1" xmlns="http://www.w3.org/2000/svg" xmlns:xlink="http://www.w3.org/1999/xlink" x="0px" y="0px"
	 width="240px" height="240px" viewBox="0 0 240 240" enable-background="new 0 0 240 240" xml:space="preserve">

<path fill="#fff" d="M240,233.7646484c0,2.0537109-0.7226563,3.8037109-2.1484375,5.2314453
	c-0.5371094,0.5371094-1.1132813,0.9775391-1.7382813,1.3388672s-1.25,0.5771484-1.875,0.6748047
	c-0.625,0.0878906-1.2109375,0.1269531-1.7382813,0.1269531c-2.1484375,0-3.9355469-0.7138672-5.3613281-2.140625
	L163.125,182.4072266c-18.3984375,14.1279297-39.0234375,21.1865234-61.875,21.1865234c-13.75,0-26.875-2.6298828-39.375-7.9091797
	c-12.5-5.2695313-23.2617188-12.4658203-32.2851563-21.5869141c-9.0136719-9.1123047-16.2011719-19.9345703-21.5625-32.4492188
	C2.6757813,129.1337891,0,115.9941406,0,102.2285156c0-6.0712891,0.5273438-12.1132813,1.6015625-18.0966797
	c1.0742188-5.9931641,2.6367188-11.7128906,4.6875-17.1679688c2.0507813-5.4458008,4.5507813-10.6762695,7.5-15.6821289
	S20.078125,41.5830078,23.828125,37.203125s7.8125-8.4472656,12.1875-12.2011719
	c4.375-3.7543945,9.1113281-7.1079102,14.1992188-10.0605469C55.3125,11.9985352,60.5761719,9.4960938,66.015625,7.4331055
	C71.4648438,5.3798828,77.1875,3.8154297,83.1640625,2.7402344C89.140625,1.6743164,95.1757813,1.1367188,101.25,1.1367188
	c18.203125,0,35.1269531,4.5073242,50.7519531,13.5410156c15.625,9.0239258,27.9492188,21.3129883,36.9628906,36.8681641
	C197.9882813,67.1005859,202.5,83.9946289,202.5,102.2285156c0,13.4135742-2.5,26.1523438-7.5,38.2177734
	c-5,12.0644531-11.9726563,22.75-20.8984375,32.0478516l63.75,56.0400391C239.2773438,229.9716797,240,231.7119141,240,233.7646484z
	 M21.8261719,135.8896484C26.3769531,146.5273438,32.5,155.6875,40.1757813,163.3720703
	s16.8261719,13.8144531,27.4511719,18.3710938c10.625,4.5556641,21.8261719,6.8339844,33.6230469,6.8339844
	c15.5273438,0,29.9511719-3.8427734,43.2519531-11.5273438c13.3105469-7.6845703,23.7988281-18.1455078,31.4746094-31.3730469
	C183.6523438,132.4482422,187.5,118.0083008,187.5,102.3652344c0-15.6425781-3.8476563-30.0830078-11.5234375-43.3110352
	S157.8125,35.3652344,144.5019531,27.6806641C131.2011719,19.9960938,116.7773438,16.1538086,101.25,16.1538086
	c-11.796875,0-22.9980469,2.277832-33.6230469,6.8339844S47.8515625,33.6738281,40.1757813,41.3583984
	S26.3769531,58.2036133,21.8261719,68.8408203C17.265625,79.4780273,15,90.652832,15,102.3652344
	C15,114.078125,17.265625,125.2529297,21.8261719,135.8896484z"/>
</svg>
