<?xml version="1.0" encoding="utf-8"?>
<!DOCTYPE svg PUBLIC "-//W3C//DTD SVG 1.1//EN" "http://www.w3.org/Graphics/SVG/1.1/DTD/svg11.dtd">
<svg version="1.1" id="Layer_1" xmlns="http://www.w3.org/2000/svg" xmlns:xlink="http://www.w3.org/1999/xlink" x="0px" y="0px"
	 width="240px" height="240px" viewBox="0 0 240 240" enable-background="new 0 0 240 240" xml:space="preserve">
<path d="M161.5917969,232.1386719h0.4785156l30.5029297-16.9238281l0.2392578-0.2441406
	c2.6953125-1.9042969,4.4873047-4.4824219,5.3613281-7.7441406c0.8740234-3.2519531,0.6738281-6.3867188-0.5957031-9.4140625
	c-1.7480469-4.1308594-2.6220703-8.0957031-2.6220703-11.9140625c0-8.5839844,3.0224609-15.9277344,9.0576172-22.0410156
	c6.0351563-6.1230469,13.3447266-9.1796875,21.9287109-9.1796875h1.1816406
	c2.5488281,0.15625,4.7314453-0.7910156,6.5673828-2.8613281c1.8261719-2.0605469,3.1347656-4.765625,3.9257813-8.1054688
	c0.15625-1.1132813,0.3515625-2.5390625,0.5957031-4.2871094c0.234375-1.7480469,0.5957031-4.6484375,1.0644531-8.7011719
	C239.7558594,126.6699219,240,123.1347656,240,120.1171875c0-6.8359375-0.7910156-14.6972656-2.3828125-23.59375
	c-0.7910156-3.3300781-2.0996094-6.0351563-3.9257813-8.1054688c-1.8359375-2.0605469-4.0185547-3.0957031-6.5673828-3.0957031
	h-1.1816406c-5.5615234,0-10.7275391-1.3964844-15.4980469-4.1699219
	c-4.7607422-2.7832031-8.5400391-6.5527344-11.3183594-11.328125c-2.7832031-4.7558594-4.1699219-9.921875-4.1699219-15.4882813
	c0-1.7480469,0.2392578-3.6523438,0.7177734-5.7226563c0.4736328-2.0605469,0.8691406-3.4960938,1.1865234-4.2871094
	s0.5566406-1.5039063,0.7177734-2.1386719c1.2695313-2.8613281,1.4697266-5.9179688,0.5957031-9.1796875
	c-0.8740234-3.2519531-2.6660156-5.8398438-5.3613281-7.7441406l-0.2392578-0.234375L162.5439453,8.3398438h-0.2392578
	c-1.9042969-0.7910156-3.8916016-1.1914063-5.9570313-1.1914063c-0.9570313,0-1.9873047,0.078125-3.1005859,0.234375
	c-1.1083984,0.1660156-2.1435547,0.4394531-3.1005859,0.8398438c-0.9521484,0.4003906-1.8652344,0.8691406-2.7392578,1.4257813
	s-1.6259766,1.2304688-2.2607422,2.03125c-2.8613281,2.8613281-6.6357422,5.8398438-11.3232422,8.9355469
	s-9.0966797,4.6484375-13.2275391,4.6484375s-8.5400391-1.5917969-13.2275391-4.765625S98.90625,14.296875,96.0498047,11.4453125
	c-1.4306641-1.5917969-3.1396484-2.7832031-5.1220703-3.5839844c-1.9873047-0.7910156-4.0966797-1.1914063-6.3183594-1.1914063
	c-0.6396484,0-1.2744141,0.0390625-1.9091797,0.1269531C82.0654297,6.875,81.4306641,6.9921875,80.7958984,7.1484375
	c-0.6396484,0.15625-1.2744141,0.4003906-1.9042969,0.7128906h-0.2392578L47.6660156,25.0292969l-0.4736328,0.234375
	c-2.7001953,1.9042969-4.4921875,4.4921875-5.3613281,7.7441406c-0.8789063,3.2617188-0.6787109,6.3183594,0.5908203,9.1796875
	c0.1611328,0.46875,0.4003906,1.1523438,0.7177734,2.0214844c0.3173828,0.8789063,0.7519531,2.34375,1.3085938,4.4042969
	c0.5566406,2.0703125,0.8349609,3.9746094,0.8349609,5.7226563c0,5.5664063-1.3916016,10.7324219-4.1699219,15.4882813
	c-2.7783203,4.7753906-6.5917969,8.5449219-11.4404297,11.328125c-4.84375,2.7734375-10.0537109,4.1699219-15.6152344,4.1699219
	h-1.1865234c-2.3828125,0-4.53125,1.0351563-6.4404297,3.0957031c-1.9042969,2.0703125-3.1738281,4.7753906-3.8134766,8.1054688
	C0.8691406,105.4199219,0,113.28125,0,120.1171875s0.8691406,14.6972656,2.6171875,23.59375
	c0.6396484,3.3398438,1.8701172,5.9960938,3.7011719,7.9882813c1.8261719,1.9824219,4.0087891,2.9785156,6.5527344,2.9785156
	h1.1865234c5.5615234,0,10.7714844,1.3964844,15.6152344,4.1699219c4.8486328,2.7832031,8.6621094,6.5917969,11.4404297,11.4355469
	c2.7783203,4.8535156,4.1699219,10.0585938,4.1699219,15.6152344c0,3.8183594-0.9570313,7.7832031-2.8613281,11.9140625
	c-1.2695313,3.0273438-1.4697266,6.1621094-0.5908203,9.4140625c0.8691406,3.2617188,2.6611328,5.8398438,5.3613281,7.7441406
	l0.234375,0.2441406l29.5556641,16.4453125h0.2392578c0.9472656,0.4785156,1.9042969,0.7910156,2.8564453,0.9570313
	c0.9570313,0.15625,1.9042969,0.234375,2.8613281,0.234375c2.2265625,0,4.3310547-0.4003906,6.3183594-1.1914063
	c1.9824219-0.7910156,3.6914063-1.9824219,5.1220703-3.5742188c0.9521484-1.1132813,2.3046875-2.3828125,4.0527344-3.8183594
	c1.7480469-1.4257813,3.7744141-2.9785156,6.0791016-4.6484375c2.2998047-1.6699219,4.8046875-3.0566406,7.5048828-4.1699219
	s5.1660156-1.6601563,7.3876953-1.6601563c3.0224609,0,6.3574219,0.9863281,10.0097656,2.9785156
	c3.6523438,1.9824219,6.7138672,3.9648438,9.1796875,5.9570313c2.4609375,1.9824219,4.4873047,3.9257813,6.0742188,5.8300781
	c1.4306641,1.4355469,3.1396484,2.5878906,5.1269531,3.4667969c1.9824219,0.8691406,4.0869141,1.3085938,6.3134766,1.3085938
	C158.0175781,233.3300781,159.84375,232.9296875,161.5917969,232.1386719z M144.4287109,209.4921875
	c-4.4482422-3.3300781-8.7792969-5.8007813-12.9882813-7.3925781c-4.2089844-1.5820313-8.2226563-2.3828125-12.0361328-2.3828125
	c-2.5390625,0-5.1660156,0.3613281-7.8662109,1.0742188c-2.6953125,0.7226563-5.4785156,1.796875-8.3398438,3.2226563
	s-5.7177734,3.1738281-8.5791016,5.2441406c-4.1308594,3.0175781-7.7050781,6.1132813-10.7275391,9.296875
	c-0.1611328,0.15625-0.4736328,0.234375-0.9521484,0.234375l-27.4121094-15.2539063
	c2.5488281-6.0351563,3.8134766-11.9140625,3.8134766-17.6367188c0-12.0800781-4.1650391-22.4804688-12.5097656-31.2207031
	C38.4912109,145.9375,28.359375,141.25,16.4453125,140.6152344c-0.3173828-1.2695313-0.5957031-2.7441406-0.8349609-4.4042969
	c-0.234375-1.6699219-0.5566406-4.1796875-0.9521484-7.5097656c-0.4003906-3.3398438-0.6005859-6.2011719-0.6005859-8.5839844
	c0-5.5566406,0.8007813-12.3925781,2.3876953-20.4980469C28.359375,98.984375,38.4912109,94.296875,46.8310547,85.5664063
	c8.3447266-8.75,12.5097656-19.1503906,12.5097656-31.2304688c0-5.7226563-1.2646484-11.5917969-3.8134766-17.6367188
	L84.609375,20.7324219c0.3173828,0,0.5566406,0.0390625,0.7128906,0.1171875
	c0.1611328,0.078125,0.3173828,0.2050781,0.4736328,0.3613281l0.9570313,0.9570313
	c0.4736328,0.46875,1.1962891,1.1425781,2.1435547,2.0214844c0.9570313,0.8691406,2.0654297,1.8261719,3.3398438,2.8613281
	c1.2695313,1.0351563,2.6171875,2.0214844,4.0527344,2.9785156c8.7402344,6.2011719,16.8408203,9.296875,24.3066406,9.296875
	c7.6269531,0,15.7324219-3.0175781,24.3115234-9.0625c3.9746094-2.8515625,7.4707031-5.8007813,10.4833984-8.8183594
	c0.1611328-0.15625,0.4785156-0.234375,0.9570313-0.234375h0.2392578l27.8857422,15.4882813
	c-2.5488281,6.0449219-3.8134766,11.9140625-3.8134766,17.6367188c0,7.7832031,1.9042969,15.0976563,5.7177734,21.9335938
	c3.8134766,6.8261719,9.0185547,12.3046875,15.6103516,16.4453125c6.5966797,4.1308594,13.8623047,6.4355469,21.8066406,6.9042969
	c1.4306641,8.1054688,2.1484375,14.9414063,2.1484375,20.4980469c0,2.3828125-0.2001953,5.2441406-0.5957031,8.5839844
	c-0.3955078,3.3300781-0.7128906,5.8398438-0.9521484,7.5097656c-0.2392578,1.6601563-0.4394531,3.1347656-0.6005859,4.4042969
	c-12.0751953,0.6347656-22.2851563,5.3222656-30.625,14.0625c-8.3447266,8.7402344-12.5097656,19.140625-12.5097656,31.2207031
	c0,5.7226563,1.2646484,11.6015625,3.8134766,17.6367188l-28.3642578,15.7324219l-0.9521484-0.2441406
	C152.1386719,215.6933594,148.5644531,212.5097656,144.4287109,209.4921875z M135.6103516,158.2519531
	c5.0830078-2.2265625,9.4921875-5.2050781,13.2275391-8.9355469c3.7353516-3.7402344,6.7138672-8.1445313,8.9355469-13.2324219
	c2.2314453-5.078125,3.3398438-10.4785156,3.3398438-16.2011719c0-11.4453125-4.0527344-21.2109375-12.1533203-29.3164063
	s-17.9150391-12.1582031-29.4335938-12.1582031s-21.3330078,4.0527344-29.4335938,12.1582031
	C81.9824219,98.671875,77.9345703,108.4375,77.9345703,119.8828125c0,11.4355469,4.0478516,21.25,12.1582031,29.4335938
	c8.1005859,8.1835938,17.8710938,12.2753906,29.3115234,12.2753906
	C125.1220703,161.5917969,130.5273438,160.4785156,135.6103516,158.2519531z M133.3496094,96.171875
	c4.2089844,2.4609375,7.5097656,5.7910156,9.8876953,10c2.3828125,4.2089844,3.5791016,8.7792969,3.5791016,13.7109375
	c0,7.6269531-2.6660156,14.1015625-7.9882813,19.4238281s-11.7578125,7.9785156-19.3017578,7.9785156
	c-7.5488281,0-14.0234375-2.65625-19.4238281-7.9785156c-5.4052734-5.3222656-8.1054688-11.796875-8.1054688-19.4238281
	c0-4.9316406,1.2304688-9.5019531,3.6914063-13.7109375s5.8007813-7.5390625,10.0097656-10
	c4.2138672-2.4609375,8.8183594-3.7011719,13.828125-3.7011719
	C124.5263672,92.4707031,129.1357422,93.7109375,133.3496094,96.171875z"/>
</svg>
