<svg xmlns="http://www.w3.org/2000/svg" width="16" height="14" viewBox="0 0 16 14">
  <path d="M13.202 11H12V7h1v2.692c.64-.913.984-1.985.984-3.092 0-3.116-2.71-5.65-6.043-5.65-.877 0-1.725.172-2.517.51L5 .6C5.926.2 6.915 0 7.94 0 11.834 0 15 2.96 15 6.6c0 1.208-.352 2.38-1.008 3.4H16v1h-2.798zM1 6.778C1 10.76 3.85 14 7.353 14c.923 0 1.814-.22 2.647-.655l-.38-.945c-.714.37-1.476.56-2.268.56-3 0-5.438-2.772-5.438-6.182 0-1.343.383-2.643 1.086-3.708v2.966h1v-4H2.623L2.588 2l-.026.035H0v1h1.92C1.32 4.155 1 5.45 1 6.778z"/>
</svg>