<svg xmlns="http://www.w3.org/2000/svg" width="16" height="16" viewBox="0 0 16 16">
  <path d="M12 2.798V4H8V3h2.692c-.913-.64-1.985-.984-3.092-.984-3.116 0-5.65 2.71-5.65 6.043 0 .877.172 1.725.51 2.516L1.6 11C1.2 10.074 1 9.085 1 8.06 1 4.166 3.96 1 7.6 1c1.208 0 2.38.352 3.4 1.008V0h1v2.798zM7.777 15C11.76 15 15 12.15 15 8.646c0-.922-.22-1.813-.655-2.646l-.945.38c.37.713.56 1.476.56 2.266 0 3-2.772 5.44-6.183 5.44-1.342 0-2.642-.384-3.708-1.087h2.965v-1h-4v1.376L3 13.412l.035.026V16h1v-1.92c1.12.6 2.414.92 3.742.92z"/>
</svg>