<svg xmlns="http://www.w3.org/2000/svg" width="16" height="16" viewBox="0 0 16 16">
  <path fill="#fff" d="M14 4l.354.354c.093-.094.146-.222.146-.354 0-.133-.053-.26-.146-.354L14 4zm-2-2l.354-.354c-.195-.195-.512-.195-.707 0L12 2zm-9 9l-.354-.354c-.055.055-.096.12-.12.195L3 11zm-1 3l-.474-.158c-.06.18-.013.378.12.512s.333.18.513.12L2 14zm3-1l.158.475c.074-.025.14-.066.195-.12L5 13zm5.354-9.353c-.194-.195-.51-.196-.707 0-.196.193-.196.51 0 .706l.707-.706zm1.292 2.718c.194.196.51.197.707.002.196-.195.196-.51.002-.708l-.71.705zm2.708-2.72l-2-2-.707.708 2 2 .707-.707zm-2.708-2l-9 9 .707.708 9-9-.707-.707zm-9.12 9.197l-1 3 .948.316 1-3-.948-.316zm-.368 3.633l3-1-.316-.95-3 1 .316.95zm3.196-1.12l9-9-.707-.708-9 9 .707.707zm4.292-9.002l2 2.012.71-.705-2-2.012-.71.705zm-7 7l2 2 .707-.706-2-2-.707.707z"/>
</svg>