<svg width="16" height="16" viewBox="0 0 16 16" version="1.1" xmlns="http://www.w3.org/2000/svg" xmlns:xlink="http://www.w3.org/1999/xlink" xmlns:figma="http://www.figma.com/figma/ns">
<title>edit</title>
<desc>Created using Figma</desc>
<g id="Canvas" transform="translate(1554 240)" figma:type="canvas">
<g id="edit" style="mix-blend-mode:normal;" figma:type="symbol">
<g id="Vector" style="mix-blend-mode:normal;" figma:type="vector">
<use xlink:href="#path0_stroke" transform="translate(-1552 -238)" style="mix-blend-mode:normal;"/>
</g>
</g>
</g>
<defs>
<path id="path0_stroke" d="M 12.0001 1.99998L 12.3537 2.35354C 12.4474 2.25977 12.5001 2.13259 12.5001 1.99998C 12.5001 1.86737 12.4474 1.74019 12.3536 1.64642L 12.0001 1.99998ZM 10 0L 10.3535 -0.353564C 10.1583 -0.548816 9.84171 -0.548812 9.64645 -0.353554L 10 0ZM 1 8.99998L 0.646447 8.64643C 0.591559 8.70132 0.550205 8.76823 0.525658 8.84187L 1 8.99998ZM 0 12L -0.474342 11.8419C -0.534231 12.0215 -0.48747 12.2196 -0.353553 12.3535C -0.219637 12.4875 -0.0215535 12.5342 0.158114 12.4743L 0 12ZM 3 11L 3.15811 11.4743C 3.23175 11.4498 3.29866 11.4084 3.35355 11.3535L 3 11ZM 8.35464 1.64752C 8.15998 1.45166 7.8434 1.45068 7.64754 1.64534C 7.45167 1.84 7.4507 2.15658 7.64536 2.35245L 8.35464 1.64752ZM 9.64536 4.36481C 9.84002 4.56067 10.1566 4.56165 10.3525 4.36699C 10.5483 4.17233 10.5493 3.85575 10.3546 3.65988L 9.64536 4.36481ZM 12.3536 1.64642L 10.3535 -0.353564L 9.64646 0.353564L 11.6466 2.35355L 12.3536 1.64642ZM 9.64645 -0.353554L 0.646447 8.64643L 1.35355 9.35354L 10.3536 0.353554L 9.64645 -0.353554ZM 0.525658 8.84187L -0.474342 11.8419L 0.474342 12.1581L 1.47434 9.1581L 0.525658 8.84187ZM 0.158114 12.4743L 3.15811 11.4743L 2.84189 10.5256L -0.158114 11.5256L 0.158114 12.4743ZM 3.35355 11.3535L 12.3537 2.35354L 11.6465 1.64643L 2.64645 10.6464L 3.35355 11.3535ZM 7.64536 2.35245L 9.64536 4.36481L 10.3546 3.65988L 8.35464 1.64752L 7.64536 2.35245ZM 0.646447 9.35354L 2.64645 11.3535L 3.35355 10.6464L 1.35355 8.64643L 0.646447 9.35354Z"/>
</defs>
</svg>
