<?xml version="1.0" encoding="utf-8"?>
<!-- Generator: Adobe Illustrator 16.0.0, SVG Export Plug-In . SVG Version: 6.00 Build 0)  -->
<!DOCTYPE svg PUBLIC "-//W3C//DTD SVG 1.1//EN" "http://www.w3.org/Graphics/SVG/1.1/DTD/svg11.dtd">
<svg version="1.1" id="Layer_1" xmlns:figma="http://www.figma.com/figma/ns"
	 xmlns="http://www.w3.org/2000/svg" xmlns:xlink="http://www.w3.org/1999/xlink" x="0px" y="0px" width="16px" height="16px"
	 viewBox="0 0 16 16" enable-background="new 0 0 16 16" xml:space="preserve">
<path id="path0_fill" d="M12,2.798V4H8V3h2.692C9.779,2.36,8.707,2.016,7.6,2.016c-3.116,0-5.651,2.711-5.651,6.043
	c0,0.878,0.173,1.726,0.512,2.517L1.599,11C1.202,10.074,1,9.085,1,8.059C1,4.167,3.961,1,7.6,1C8.808,1,9.98,1.352,11,2.008V0h1
	V2.798z"/>
<path id="path1_fill" d="M7.777,15C11.76,15,15,12.15,15,8.646C15,7.724,14.779,6.833,14.345,6L13.4,6.381
	c0.371,0.712,0.561,1.475,0.561,2.265c0,3-2.773,5.439-6.184,5.439c-1.342,0-2.642-0.383-3.708-1.086h2.966v-1h-4v1.377L3,13.412
	l0.035,0.026V16h1v-1.919C5.156,14.679,6.449,15,7.777,15z"/>
</svg>
