<?xml version="1.0" encoding="utf-8"?>
<!-- Generator: Adobe Illustrator 16.0.0, SVG Export Plug-In . SVG Version: 6.00 Build 0)  -->
<!DOCTYPE svg PUBLIC "-//W3C//DTD SVG 1.1//EN" "http://www.w3.org/Graphics/SVG/1.1/DTD/svg11.dtd">
<svg version="1.1" id="Layer_1" xmlns:figma="http://www.figma.com/figma/ns"
	 xmlns="http://www.w3.org/2000/svg" xmlns:xlink="http://www.w3.org/1999/xlink" x="0px" y="0px" width="16px" height="16px"
	 viewBox="0 0 16 16" enable-background="new 0 0 16 16" xml:space="preserve">
<path d="M10.871,10.164C11.576,9.303,12,8.201,12,7c0-2.761-2.238-5-5-5C4.239,2,2,4.239,2,7c0,2.762,2.239,5,5,5
	c1.201,0,2.303-0.424,3.164-1.129l3.232,3.232l0.707-0.707L10.871,10.164z M7,11c-2.209,0-4-1.791-4-4s1.791-4,4-4s4,1.791,4,4
	S9.209,11,7,11z"/>
</svg>
